<?xml version="1.0" encoding="utf-8"?>
<!-- Generator: Adobe Illustrator 26.0.0, SVG Export Plug-In . SVG Version: 6.00 Build 0)  -->
<svg version="1.1" id="Capa_1" xmlns="http://www.w3.org/2000/svg" xmlns:xlink="http://www.w3.org/1999/xlink" x="0px" y="0px"
	 viewBox="0 0 40 40" style="enable-background:new 0 0 40 40;" xml:space="preserve">
<g>
	<path d="M17.1,20.9c-0.2-0.1-0.4-0.2-0.6-0.2c-0.2,0-0.4-0.1-0.6-0.1c-0.4,0-0.8,0-1.2,0c0,0,0,0,0,0c-0.5,0-1,0-1.5,0
		c-0.2,0-0.2,0-0.2,0.2c0,1,0,2,0,2.9c0,0.2,0,0.2,0.2,0.2c0.9,0,1.8,0,2.7,0c0.2,0,0.3,0,0.5,0c0.3,0,0.6-0.1,0.8-0.2
		c0.3-0.2,0.5-0.5,0.6-0.8c0.1-0.4,0.1-0.8,0-1.2C17.7,21.3,17.4,21.1,17.1,20.9z"/>
	<path d="M13.2,18.8c0.4,0,0.9,0,1.3,0c0,0,0,0,0,0c0.4,0,0.8,0,1.2,0c0.3,0,0.7-0.1,1-0.2c0.3-0.2,0.5-0.4,0.6-0.7
		c0.1-0.3,0.1-0.5,0-0.8c-0.1-0.4-0.3-0.7-0.7-0.9c-0.1-0.1-0.3-0.1-0.5-0.1C16,16,15.7,16,15.5,16c-0.7,0-1.3,0-2,0
		c-0.1,0-0.2,0-0.3,0C13,16,13,16,13,16.2c0,0.8,0,1.7,0,2.5C13,18.8,13,18.8,13.2,18.8z"/>
	<path d="M26.8,19.3c-0.2-0.3-0.5-0.5-0.9-0.6c-0.3-0.1-0.6-0.1-0.9,0c-0.8,0.1-1.6,0.6-1.7,1.8c0,0.1,0,0.1,0.1,0.1c0,0,0,0,0.1,0
		c1.2,0,2.4,0,3.6,0c0,0,0.1,0,0.2,0c0,0,0-0.1,0-0.1C27.1,20,27,19.6,26.8,19.3z"/>
	<path d="M20,6.6c-7.4,0-13.4,6-13.4,13.4s6,13.4,13.4,13.4s13.4-6,13.4-13.4S27.4,6.6,20,6.6z M22.9,14.7c0-0.1,0-0.1,0.1-0.1
		c0,0,0.1,0,0.1,0c0.7,0,1.5,0,2.2,0c0.7,0,1.5,0,2.2,0c0.2,0,0.2,0,0.2,0.2c0,0.3,0,0.6,0,1c0,0.2,0,0.2-0.2,0.2
		c-0.2,0-0.4,0-0.6,0c-1.3,0-2.6,0-3.9,0c-0.2,0-0.2,0-0.2-0.2C22.9,15.4,22.9,15.1,22.9,14.7C22.9,14.7,22.9,14.7,22.9,14.7z
		 M20.4,23.5c-0.2,0.8-0.6,1.4-1.3,1.8c-0.5,0.4-1.2,0.6-1.8,0.7c-0.4,0.1-0.7,0.1-1.1,0.1c-1.9,0-3.8,0-5.7,0c0,0,0,0-0.1,0
		c-0.1,0-0.1,0-0.1-0.1c0,0,0-0.1,0-0.1c0-3.9,0-7.8,0-11.7c0-0.2,0-0.2,0.2-0.2c1.8,0,3.6,0,5.4,0c0.6,0,1.1,0,1.7,0.2
		c0.3,0.1,0.7,0.2,1,0.4c0.6,0.3,1,0.8,1.2,1.5c0.1,0.5,0.2,1.1,0.1,1.6c-0.1,0.6-0.4,1-0.8,1.4c-0.2,0.1-0.4,0.3-0.6,0.4
		c0,0-0.1,0-0.1,0.1c0,0,0,0,0,0c0.1,0,0.1,0,0.2,0.1c0.3,0.1,0.7,0.3,0.9,0.5c0.5,0.4,0.8,0.8,0.9,1.4
		C20.6,22.1,20.6,22.8,20.4,23.5z M29.5,22c0,0-0.1,0-0.1,0c-1,0-1.9,0-2.9,0c-1,0-2,0-2.9,0c-0.2,0-0.2,0-0.2,0.2
		c0,0.3,0.1,0.5,0.2,0.8c0.2,0.6,0.6,1,1.2,1.1c0.5,0.1,0.9,0.1,1.4,0c0.4-0.1,0.8-0.3,1-0.6c0.1-0.1,0.2-0.2,0.2-0.3
		c0-0.1,0.1-0.1,0.2-0.1c0.4,0,0.8,0,1.1,0c0.2,0,0.4,0,0.6,0c0,0,0.1,0,0.1,0c0.1,0,0.1,0,0.1,0.1c0,0,0,0,0,0.1
		c-0.2,0.5-0.4,0.9-0.7,1.3c-0.5,0.6-1.1,1-1.8,1.2c-0.6,0.2-1.2,0.2-1.9,0.2c-0.5,0-0.9-0.1-1.4-0.3c-1.2-0.4-2-1.2-2.4-2.4
		c-0.3-0.8-0.4-1.5-0.3-2.3c0-0.7,0.2-1.3,0.5-1.9c0.7-1.2,1.7-2,3.1-2.3c0.7-0.1,1.4-0.1,2.1,0.1c1,0.3,1.8,0.9,2.3,1.8
		c0.4,0.6,0.6,1.3,0.7,2c0,0.3,0,0.6,0,0.9c0,0.1,0,0.1,0,0.2C29.6,22,29.6,22,29.5,22z"/>
</g>
</svg>
