<?xml version="1.0" encoding="utf-8"?>
<!-- Generator: Adobe Illustrator 26.0.0, SVG Export Plug-In . SVG Version: 6.00 Build 0)  -->
<svg version="1.1" id="Capa_1" xmlns="http://www.w3.org/2000/svg" xmlns:xlink="http://www.w3.org/1999/xlink" x="0px" y="0px"
	 viewBox="0 0 40 40" style="enable-background:new 0 0 40 40;" xml:space="preserve">
<style type="text/css">
	.st0{fill:#FFFFFF;}
</style>
<path class="st0" d="M26.64,30.6c-0.56-0.76-1.04-1.57-1.46-2.42c0.27-0.11,0.53-0.22,0.79-0.34c0.26-0.12,0.52-0.25,0.78-0.38
	c0.26-0.13,0.5-0.27,0.75-0.43c-0.02-0.02-0.03-0.04-0.05-0.05c-0.16-0.13-0.32-0.25-0.47-0.38c-0.05-0.04-0.08-0.04-0.14-0.01
	c-0.65,0.31-1.32,0.57-2.01,0.79c-0.68,0.22-1.38,0.39-2.08,0.52c-0.4,0.07-0.81,0.13-1.22,0.16c-0.32,0.03-0.63,0.05-0.95,0.06
	c-0.33,0.01-0.66,0.02-0.98,0.01c-0.29-0.01-0.58-0.03-0.87-0.05c-0.41-0.03-0.81-0.08-1.22-0.15c-0.48-0.07-0.96-0.17-1.43-0.3
	c-1.01-0.26-1.98-0.61-2.93-1.05c-0.07-0.03-0.12-0.02-0.17,0.02c-0.13,0.11-0.27,0.22-0.41,0.33c-0.03,0.02-0.06,0.05-0.1,0.08
	c0.74,0.46,1.51,0.83,2.31,1.14c-0.03,0.23-1.06,1.95-1.45,2.43c-0.05-0.01-0.11-0.03-0.16-0.05c-0.86-0.28-1.7-0.6-2.52-0.97
	c-0.85-0.39-1.67-0.83-2.46-1.32c-0.58-0.36-1.13-0.74-1.68-1.14c-0.06-0.04-0.09-0.08-0.09-0.16c-0.01-0.14-0.02-0.29-0.03-0.43
	c-0.02-0.3-0.04-0.59-0.06-0.89c-0.01-0.13-0.01-0.25-0.01-0.38c0-0.42,0-0.85,0-1.27c0-0.27,0.01-0.55,0.03-0.82
	c0.03-0.46,0.07-0.92,0.12-1.39c0.1-0.84,0.24-1.67,0.44-2.5c0.19-0.83,0.43-1.65,0.72-2.46c0.25-0.71,0.54-1.41,0.85-2.1
	c0.51-1.11,1.11-2.18,1.77-3.22c0.06-0.1,0.12-0.19,0.18-0.28c0.03-0.05,0.07-0.09,0.13-0.11c0.48-0.2,0.96-0.41,1.44-0.61
	c0.6-0.24,1.22-0.44,1.84-0.62c0.72-0.2,1.44-0.37,2.17-0.5c0.09-0.02,0.09-0.01,0.14,0.07c0.24,0.43,0.45,0.87,0.65,1.33
	c0.04,0.09,0.04,0.09,0.14,0.08c0.32-0.04,0.65-0.09,0.97-0.12c0.2-0.02,0.41-0.04,0.61-0.05c0.34-0.02,0.69-0.03,1.03-0.04
	c0.22-0.01,0.44-0.02,0.67-0.01c0.31,0.01,0.61,0.02,0.92,0.04c0.5,0.03,0.99,0.07,1.49,0.14c0.13,0.02,0.26,0.03,0.39,0.05
	c0.1,0.01,0.1,0.01,0.14-0.08c0.16-0.35,0.32-0.7,0.49-1.05c0.05-0.1,0.1-0.19,0.15-0.29c0.04-0.07,0.05-0.08,0.13-0.06
	c0.28,0.05,0.56,0.11,0.83,0.17c0.86,0.19,1.71,0.42,2.54,0.71c0.72,0.25,1.42,0.53,2.11,0.85c0.04,0.02,0.08,0.05,0.1,0.09
	c0.4,0.6,0.78,1.21,1.12,1.85c0.26,0.49,0.52,0.98,0.76,1.48c0.34,0.7,0.63,1.42,0.89,2.15c0.27,0.76,0.51,1.54,0.7,2.32
	c0.16,0.64,0.29,1.29,0.38,1.95c0.06,0.4,0.11,0.8,0.16,1.21c0.03,0.31,0.05,0.62,0.07,0.93c0.03,0.37,0.04,0.74,0.04,1.11
	c0,0.18,0.02,0.35,0.02,0.53c0,0.29-0.01,0.59-0.03,0.88c-0.01,0.24-0.02,0.48-0.04,0.71c-0.01,0.21-0.04,0.42-0.05,0.63
	c0,0.06-0.03,0.09-0.07,0.13c-0.29,0.2-0.57,0.41-0.86,0.61c-0.64,0.44-1.3,0.84-1.98,1.21c-0.91,0.49-1.84,0.92-2.81,1.27
	c-0.35,0.13-0.7,0.25-1.05,0.37C26.73,30.58,26.69,30.59,26.64,30.6z M17.93,21.04c-0.02-0.17-0.03-0.35-0.05-0.52
	c-0.11-0.69-0.41-1.27-0.94-1.72c-0.51-0.44-1.11-0.63-1.78-0.55c-0.6,0.08-1.08,0.37-1.47,0.82c-0.36,0.41-0.57,0.89-0.67,1.43
	c-0.08,0.42-0.07,0.84,0.03,1.25c0.15,0.66,0.47,1.23,1.02,1.64c0.68,0.52,1.43,0.63,2.23,0.31c0.62-0.25,1.04-0.71,1.33-1.31
	C17.83,21.97,17.92,21.51,17.93,21.04z M24.51,23.88c0.37,0,0.7-0.08,1-0.23c0.53-0.26,0.91-0.66,1.17-1.18
	c0.3-0.6,0.4-1.24,0.3-1.9c-0.09-0.65-0.36-1.22-0.83-1.67c-0.51-0.49-1.11-0.72-1.82-0.66c-0.26,0.02-0.51,0.09-0.74,0.21
	c-0.58,0.28-0.98,0.74-1.25,1.32c-0.26,0.58-0.33,1.18-0.23,1.8c0.11,0.68,0.41,1.27,0.94,1.73C23.47,23.67,23.97,23.87,24.51,23.88
	z"/>
</svg>
