<?xml version="1.0" encoding="utf-8"?>
<!-- Generator: Adobe Illustrator 26.0.0, SVG Export Plug-In . SVG Version: 6.00 Build 0)  -->
<svg version="1.1" id="Capa_1" xmlns="http://www.w3.org/2000/svg" xmlns:xlink="http://www.w3.org/1999/xlink" x="0px" y="0px"
	 viewBox="0 0 40 40" style="enable-background:new 0 0 40 40;" xml:space="preserve">
<style type="text/css">
	.st0{fill:#FFFFFF;}
</style>
<path class="st0" d="M21.93,31.53c0,0,0-7.31,0-10.48c0-0.11,0-0.11,0.11-0.11c1.02,0,2.03,0,3.05,0c0.07,0,0.09-0.02,0.1-0.08
	c0.06-0.42,0.13-0.84,0.19-1.25c0.12-0.79,0.24-1.58,0.36-2.37c0.02-0.1,0.03-0.2,0.05-0.31c-0.04,0-0.08,0-0.11,0
	c-1.22,0-2.43,0-3.65,0c-0.09,0-0.09,0-0.09-0.09c0-0.84,0-1.67,0-2.51c0-0.21,0.02-0.43,0.07-0.64c0.15-0.68,0.54-1.15,1.21-1.38
	c0.33-0.12,0.66-0.15,1.01-0.15c0.55,0,1.1,0,1.65,0c0.06,0,0.09-0.02,0.09-0.08c0-1.09,0-2.17,0-3.26c0-0.07-0.03-0.09-0.09-0.1
	c-0.67-0.1-1.33-0.18-2.01-0.22c-0.46-0.03-0.92-0.05-1.38-0.03c-0.57,0.03-1.12,0.12-1.66,0.3c-0.6,0.2-1.15,0.51-1.62,0.93
	c-0.58,0.53-0.99,1.17-1.25,1.91c-0.26,0.73-0.35,1.48-0.35,2.25c0,0.99,0,1.98,0,2.96c0,0.1,0,0.1-0.1,0.1c-1.11,0-2.22,0-3.32,0
	c-0.1,0-0.1,0-0.1,0.1c0,1.27,0,2.54,0,3.81c0,0.11,0,0.11,0.11,0.11c1.11,0,2.22,0,3.32,0c0.1,0,0.1,0,0.1,0.1
	c0,0.02,0,0.05,0,0.07c0,3.14,0,10.42,0,10.42H21.93z"/>
</svg>
