<?xml version="1.0" encoding="utf-8"?>
<!-- Generator: Adobe Illustrator 26.0.0, SVG Export Plug-In . SVG Version: 6.00 Build 0)  -->
<svg version="1.1" id="Capa_1" xmlns="http://www.w3.org/2000/svg" xmlns:xlink="http://www.w3.org/1999/xlink" x="0px" y="0px"
	 viewBox="0 0 40 40" style="enable-background:new 0 0 40 40;" xml:space="preserve">
<style type="text/css">
	.st0{fill:#FFFFFF;}
</style>
<path class="st0" d="M16.14,26.86c0.61-1.09,1.48-1.63,2.64-1.43c0.55,0.1,1.11,0.41,1.57,0.74c0.31,0.22,0.51,0.3,0.84,0.12
	c2.61-1.4,5.22-2.81,7.84-4.18c0.48-0.25,0.6-0.55,0.53-1.05c-0.22-1.66,1.42-3.1,3.03-2.77c1.21,0.24,2.11,1.25,2.16,2.53
	c0.04,1.11-0.81,2.27-1.89,2.57c-0.7,0.2-1.34,0.08-1.99-0.23c-0.22-0.11-0.59-0.14-0.8-0.03c-2.86,1.52-5.71,3.07-8.55,4.63
	c-0.2,0.11-0.39,0.39-0.43,0.62c-0.24,1.17-1.24,2.12-2.44,2.24c-1.04,0.1-2.28-0.72-2.61-1.82c-0.13-0.43-0.37-0.63-0.73-0.81
	c-2.6-1.32-5.21-2.63-7.79-4c-1.4-0.74-2-2.07-2.26-3.57c-0.3-1.75,0.42-3.28,2.12-4.09c4.54-2.15,9.01-4.44,13.51-6.69
	c0.68-0.34,1.37-0.41,2.04-0.09c3.34,1.57,6.67,3.17,9.99,4.78c0.26,0.13,0.45,0.41,0.67,0.62c-0.21,0.22-0.39,0.51-0.64,0.65
	c-4.68,2.45-9.37,4.88-14.05,7.32c-0.57,0.3-1.08,0.27-1.65-0.03c-2.92-1.55-5.85-3.07-8.78-4.61c-1.06-0.56-1.7-0.23-1.86,0.98
	c-0.16,1.21,0.59,3.02,1.84,3.61c2.4,1.14,4.72,2.46,7.08,3.71C15.74,26.68,15.91,26.75,16.14,26.86z M32.18,21.8
	c0.52-0.01,0.91-0.44,0.89-0.98c-0.02-0.48-0.45-0.91-0.91-0.91c-0.5,0-0.94,0.46-0.93,0.96C31.23,21.4,31.66,21.81,32.18,21.8z
	 M18.54,28.91c0.48,0,0.95-0.47,0.95-0.94c0-0.45-0.51-0.95-0.96-0.94c-0.49,0.01-0.92,0.45-0.91,0.96
	C17.62,28.51,18.01,28.91,18.54,28.91z"/>
</svg>
