<?xml version="1.0" encoding="utf-8"?>
<!-- Generator: Adobe Illustrator 26.0.0, SVG Export Plug-In . SVG Version: 6.00 Build 0)  -->
<svg version="1.1" id="Capa_1" xmlns="http://www.w3.org/2000/svg" xmlns:xlink="http://www.w3.org/1999/xlink" x="0px" y="0px"
	 viewBox="0 0 40 40" style="enable-background:new 0 0 40 40;" xml:space="preserve">
<path d="M16.1,26.9c0.6-1.1,1.5-1.6,2.6-1.4c0.5,0.1,1.1,0.4,1.6,0.7c0.3,0.2,0.5,0.3,0.8,0.1c2.6-1.4,5.2-2.8,7.8-4.2
	c0.5-0.2,0.6-0.5,0.5-1c-0.2-1.7,1.4-3.1,3-2.8c1.2,0.2,2.1,1.2,2.2,2.5c0,1.1-0.8,2.3-1.9,2.6c-0.7,0.2-1.3,0.1-2-0.2
	c-0.2-0.1-0.6-0.1-0.8,0c-2.9,1.5-5.7,3.1-8.6,4.6c-0.2,0.1-0.4,0.4-0.4,0.6c-0.2,1.2-1.2,2.1-2.4,2.2c-1,0.1-2.3-0.7-2.6-1.8
	c-0.1-0.4-0.4-0.6-0.7-0.8c-2.6-1.3-5.2-2.6-7.8-4c-1.4-0.7-2-2.1-2.3-3.6c-0.3-1.8,0.4-3.3,2.1-4.1c4.5-2.1,9-4.4,13.5-6.7
	c0.7-0.3,1.4-0.4,2-0.1c3.3,1.6,6.7,3.2,10,4.8c0.3,0.1,0.5,0.4,0.7,0.6c-0.2,0.2-0.4,0.5-0.6,0.6c-4.7,2.4-9.4,4.9-14,7.3
	c-0.6,0.3-1.1,0.3-1.6,0c-2.9-1.5-5.9-3.1-8.8-4.6c-1.1-0.6-1.7-0.2-1.9,1c-0.2,1.2,0.6,3,1.8,3.6c2.4,1.1,4.7,2.5,7.1,3.7
	C15.7,26.7,15.9,26.7,16.1,26.9z M32.2,21.8c0.5,0,0.9-0.4,0.9-1c0-0.5-0.5-0.9-0.9-0.9c-0.5,0-0.9,0.5-0.9,1
	C31.2,21.4,31.7,21.8,32.2,21.8z M18.5,28.9c0.5,0,1-0.5,1-0.9c0-0.5-0.5-1-1-0.9c-0.5,0-0.9,0.5-0.9,1C17.6,28.5,18,28.9,18.5,28.9
	z"/>
</svg>
