<?xml version="1.0" encoding="utf-8"?>
<!-- Generator: Adobe Illustrator 26.0.0, SVG Export Plug-In . SVG Version: 6.00 Build 0)  -->
<svg version="1.1" id="Capa_1" xmlns="http://www.w3.org/2000/svg" xmlns:xlink="http://www.w3.org/1999/xlink" x="0px" y="0px"
	 viewBox="0 0 40 40" style="enable-background:new 0 0 40 40;" xml:space="preserve">
<style type="text/css">
	.st0{fill:#FFFFFF;}
</style>
<g>
	<path class="st0" d="M23.5,30.29c-2.35,0-4.69,0-7.04,0c-0.09-0.01-0.17-0.02-0.26-0.03c-0.59-0.05-1.19-0.07-1.78-0.17
		c-1.55-0.27-2.81-1.02-3.68-2.35c-0.63-0.95-0.88-2.01-0.96-3.13c-0.03-0.4-0.05-0.8-0.07-1.2c0-2.13,0-4.26,0-6.39
		c0.01-0.14,0.03-0.28,0.04-0.42c0.02-0.79,0.04-1.58,0.21-2.36c0.36-1.68,1.25-2.97,2.79-3.78c0.84-0.44,1.76-0.63,2.7-0.69
		c0.42-0.03,0.84-0.05,1.26-0.08c2.22,0,4.45,0,6.67,0c0.14,0.01,0.28,0.02,0.42,0.03c0.59,0.05,1.18,0.07,1.76,0.17
		c1.57,0.27,2.84,1.04,3.72,2.39c0.62,0.95,0.87,2.02,0.94,3.14c0.03,0.45,0.05,0.89,0.08,1.34c0,2.05,0,4.1,0,6.15
		c-0.01,0.12-0.03,0.24-0.04,0.36c-0.04,0.66-0.05,1.33-0.14,1.98c-0.2,1.55-0.86,2.85-2.13,3.8c-1,0.75-2.15,1.05-3.38,1.15
		C24.25,30.25,23.87,30.27,23.5,30.29z M19.99,11.54c-1.43,0.03-2.88,0.06-4.34,0.11c-0.74,0.02-1.45,0.16-2.11,0.52
		c-1.01,0.54-1.6,1.41-1.77,2.52c-0.13,0.86-0.19,1.75-0.2,2.62c-0.02,2.12,0.01,4.23,0.04,6.35c0.01,0.55,0.06,1.1,0.16,1.64
		c0.3,1.55,1.22,2.56,2.78,2.9c0.62,0.14,1.27,0.19,1.91,0.2c2.36,0.02,4.73,0.02,7.09,0.01c0.5,0,1-0.05,1.5-0.12
		c1.72-0.23,2.88-1.29,3.18-2.99c0.15-0.83,0.18-1.68,0.19-2.52c0.01-2.18-0.01-4.35-0.04-6.53c-0.01-0.51-0.06-1.03-0.16-1.54
		c-0.2-1.11-0.77-1.99-1.79-2.54c-0.66-0.35-1.38-0.49-2.11-0.51C22.89,11.6,21.45,11.57,19.99,11.54z"/>
	<path class="st0" d="M19.98,25.29c-2.97-0.02-5.27-2.38-5.25-5.38c0.02-2.88,2.4-5.2,5.31-5.18c2.94,0.02,5.26,2.39,5.24,5.34
		C25.25,22.95,22.87,25.3,19.98,25.29z M19.99,23.42c1.91,0,3.43-1.51,3.43-3.41c0-1.9-1.51-3.43-3.41-3.44
		c-1.92,0-3.44,1.51-3.44,3.42C16.57,21.9,18.09,23.42,19.99,23.42z"/>
	<path class="st0" d="M25.5,13.27c0.69,0,1.23,0.54,1.23,1.24c0,0.69-0.55,1.23-1.25,1.23c-0.68,0-1.22-0.55-1.22-1.23
		C24.26,13.81,24.8,13.27,25.5,13.27z"/>
</g>
</svg>
