<?xml version="1.0" encoding="utf-8"?>
<!-- Generator: Adobe Illustrator 24.3.0, SVG Export Plug-In . SVG Version: 6.00 Build 0)  -->
<svg version="1.1" id="Capa_1" xmlns="http://www.w3.org/2000/svg" xmlns:xlink="http://www.w3.org/1999/xlink" x="0px" y="0px"
	 viewBox="0 0 40 40" style="enable-background:new 0 0 40 40;" xml:space="preserve">
<style type="text/css">
	.st0{fill:#1D1D1B;}
</style>
<g>
	<path class="st0" d="M23.5,30.3c-2.4,0-4.7,0-7,0c-0.1,0-0.2,0-0.3,0c-0.6,0-1.2-0.1-1.8-0.2c-1.6-0.3-2.8-1-3.7-2.4
		c-0.6-1-0.9-2-1-3.1c0-0.4-0.1-0.8-0.1-1.2c0-2.1,0-4.3,0-6.4c0-0.1,0-0.3,0-0.4c0-0.8,0-1.6,0.2-2.4c0.4-1.7,1.2-3,2.8-3.8
		c0.8-0.4,1.8-0.6,2.7-0.7c0.4,0,0.8-0.1,1.3-0.1c2.2,0,4.5,0,6.7,0c0.1,0,0.3,0,0.4,0c0.6,0.1,1.2,0.1,1.8,0.2
		c1.6,0.3,2.8,1,3.7,2.4c0.6,0.9,0.9,2,0.9,3.1c0,0.4,0,0.9,0.1,1.3c0,2,0,4.1,0,6.1c0,0.1,0,0.2,0,0.4c0,0.7,0,1.3-0.1,2
		c-0.2,1.5-0.9,2.9-2.1,3.8c-1,0.8-2.1,1-3.4,1.1C24.2,30.2,23.9,30.3,23.5,30.3z M20,11.5c-1.4,0-2.9,0.1-4.3,0.1
		c-0.7,0-1.4,0.2-2.1,0.5c-1,0.5-1.6,1.4-1.8,2.5c-0.1,0.9-0.2,1.8-0.2,2.6c0,2.1,0,4.2,0,6.4c0,0.5,0.1,1.1,0.2,1.6
		c0.3,1.5,1.2,2.6,2.8,2.9c0.6,0.1,1.3,0.2,1.9,0.2c2.4,0,4.7,0,7.1,0c0.5,0,1,0,1.5-0.1c1.7-0.2,2.9-1.3,3.2-3
		c0.1-0.8,0.2-1.7,0.2-2.5c0-2.2,0-4.4,0-6.5c0-0.5-0.1-1-0.2-1.5c-0.2-1.1-0.8-2-1.8-2.5c-0.7-0.4-1.4-0.5-2.1-0.5
		C22.9,11.6,21.5,11.6,20,11.5z"/>
	<path class="st0" d="M20,25.3c-3,0-5.3-2.4-5.2-5.4c0-2.9,2.4-5.2,5.3-5.2c2.9,0,5.3,2.4,5.2,5.3C25.2,23,22.9,25.3,20,25.3z
		 M20,23.4c1.9,0,3.4-1.5,3.4-3.4s-1.5-3.4-3.4-3.4c-1.9,0-3.4,1.5-3.4,3.4S18.1,23.4,20,23.4z"/>
	<path class="st0" d="M25.5,13.3c0.7,0,1.2,0.5,1.2,1.2c0,0.7-0.5,1.2-1.2,1.2c-0.7,0-1.2-0.6-1.2-1.2
		C24.3,13.8,24.8,13.3,25.5,13.3z"/>
</g>
</svg>
