<?xml version="1.0" encoding="utf-8"?>
<!-- Generator: Adobe Illustrator 24.3.0, SVG Export Plug-In . SVG Version: 6.00 Build 0)  -->
<svg version="1.1" id="Capa_1" xmlns="http://www.w3.org/2000/svg" xmlns:xlink="http://www.w3.org/1999/xlink" x="0px" y="0px"
	 viewBox="0 0 40 40" style="enable-background:new 0 0 40 40;" xml:space="preserve">
<style type="text/css">
	.st0{fill:#FFFFFF;}
</style>
<g>
	<path class="st0" d="M21,14.4c1.9-2.2,4.1-2.7,6.5-1.8c1.9,0.6,2.9,2.3,3,4.1c0.2,2.6,0.1,5.3,0.1,7.9c0,0.9,0,1.7,0,2.6
		c0,0.6-0.1,0.9-0.8,0.9c-1,0-2.1,0-3,0c-0.6,0-0.9-0.2-0.8-0.8c0-2.5,0-4.9,0-7.4c0-0.3,0-0.6,0-1c-0.1-1.5-1-2.5-2.5-2.5
		c-1.6,0-2.6,1-2.6,2.5c0,2.7,0,5.5,0,8.2c0,0.6-0.2,1-0.9,1c-1.1,0-2.1,0-3.1,0c-0.4,0-0.6-0.2-0.6-0.6c0-4.8,0-9.5,0-14.3
		c0-0.5,0.2-0.6,0.6-0.6c1,0,2.1,0,3,0c0.6,0,1,0.2,0.9,0.9C21,13.6,21,13.9,21,14.4z"/>
	<path class="st0" d="M13.9,28c-1.4,0-2.9,0-4.4,0c0-0.3,0-0.6,0-1c0-4.5,0-9.1,0-13.6c0-0.6,0.1-1,0.9-0.9c1,0.1,2.1,0,3,0
		c0.4,0,0.6,0.1,0.6,0.5c0,4.9,0,9.7,0,14.6C14,27.8,13.9,27.9,13.9,28z"/>
	<path class="st0" d="M11.7,6.8c1.3,0,2.4,1,2.4,2.3s-1.1,2.4-2.4,2.4s-2.4-1.1-2.4-2.4C9.2,7.8,10.3,6.8,11.7,6.8z"/>
</g>
</svg>
