<?xml version="1.0" encoding="utf-8"?>
<!-- Generator: Adobe Illustrator 24.3.0, SVG Export Plug-In . SVG Version: 6.00 Build 0)  -->
<svg version="1.1" id="Capa_1" xmlns="http://www.w3.org/2000/svg" xmlns:xlink="http://www.w3.org/1999/xlink" x="0px" y="0px"
	 viewBox="0 0 40 40" style="enable-background:new 0 0 40 40;" xml:space="preserve">
<style type="text/css">
	.st0{fill:#1D1D1B;}
</style>
<g>
	<path class="st0" d="M21.4,20c0-3.3-2.6-6-5.9-6c-3.2,0-5.9,2.6-6,5.9c0,3.4,2.6,6.1,5.9,6.1C18.6,26,21.3,23.4,21.4,20z"/>
	<path class="st0" d="M21.9,20.3c0,0.6,0.1,1.5,0.3,2.4c0.2,0.9,0.6,1.7,1.3,2.4c0.9,0.9,1.9,0.9,2.8,0c0.4-0.4,0.7-0.9,1-1.5
		c0.8-2.1,0.9-4.2,0.2-6.4c-0.2-0.9-0.6-1.7-1.3-2.3c-0.8-0.7-1.7-0.7-2.4,0c-0.5,0.4-0.9,1-1.1,1.6C22.1,17.6,21.9,18.8,21.9,20.3z
		"/>
	<path class="st0" d="M30.6,19.5c0-0.5-0.1-1.6-0.2-2.6c-0.1-0.6-0.3-1.1-0.5-1.7c0-0.1-0.2-0.3-0.4-0.3s-0.3,0.2-0.4,0.3
		c-0.1,0.3-0.3,0.6-0.3,1c-0.5,2.4-0.5,4.8-0.1,7.1c0.1,0.5,0.2,1,0.5,1.4c0.2,0.4,0.5,0.4,0.6,0c0.1-0.2,0.2-0.5,0.3-0.7
		C30.5,22.7,30.5,21.4,30.6,19.5z"/>
</g>
</svg>
