<svg version="1.0" viewBox="0 0 298.19 400" xmlns="http://www.w3.org/2000/svg" xmlns:xlink="http://www.w3.org/1999/xlink"><defs><linearGradient id="linearGradient1091" x1="1389.3" x2="1989.3" y1="-485.27" y2="-485.27" gradientTransform="matrix(.49698 0 0 .49698 698.85 -446.53)" gradientUnits="userSpaceOnUse"><stop stop-color="#9c27b0" offset="0"/><stop stop-color="#e91e63" offset=".69659"/></linearGradient></defs><g transform="translate(-1389.3 887.7)"><text x="-118.91296" y="-113.9196" fill="#000000" font-family="'DejaVu Sans'" font-size="39.999px" letter-spacing="0px" stroke-width=".99999px" word-spacing="0px" style="line-height:125%" xml:space="preserve"><tspan x="-118.91296" y="-78.528976" stroke-width=".99999px"/></text><g transform="translate(384.68,-37.414)" display="none" fill="#fff"><g fill-rule="evenodd"><path d="m158.79 26.703c-6.4092-1.4072-8.7632-3.2136-14.396-5.894 2.8509 5.5641-10.123 6.4307-18.773 7.2626 12.276 2.8217 21.806 0.74458 33.169-1.3687z" fill-opacity=".99505"/><path d="m106.82 9.4756c6.2236-0.84868 12.726 3.2939 16.877 4.0352-10.476-2.3142-13.754-3.1563-17.343-1.7718-0.58447 0.22549-0.098-1.2376 0.46582-2.2634z" display="inline"/><g fill-opacity=".99505"><path d="m198.57 61.726s-3.9107-6.6997-11.591-12.912c-4.1014-3.3173-6.2854-2.1247-13.347-2.4068 8.8613 1.5703 14.469 3.8578 24.937 15.318z" display="inline"/><path d="m210.78 84.074s2.1794 2.8499-3.3838-6.5194c-4.4653-7.5202-4.8241-9.9019-13.404-12.639 6.9661 4.0388 4.7424 4.4682 16.788 19.158z" display="inline"/><path d="m219.77 107.72c-1.4025-3.3704-1.9746-16.617-12.17-18.912 6.9661 4.0388 0.12417 4.222 12.17 18.912z" display="inline"/><path d="m223.4 131.65c1.5821-5.0774-1.3122-17.581-10.414-21.983 5.5297 4.6768 5.8475 10.301 10.414 21.983z" display="inline"/></g></g><ellipse transform="matrix(.95642 -.292 .24444 .96966 0 0)" cx="179.58" cy="198.85" rx="1.4365" ry="2.1234" display="inline" style="paint-order:normal"/><g fill-opacity=".99505" fill-rule="evenodd"><path d="m221.73 144.34c-2.7312 2.7835-5.6816 5.758-2.8754 10.875 0.14116-3.7911 4.7653-8.9331 2.8754-10.875z" display="inline"/><path d="m216.36 162.38c-2.3682-5.272-3.3411 2.1809-5.9687 12.817 3.7742-7.0669 4.9425-8.0068 5.9687-12.817z" display="inline"/><path d="m204.88 180.45c-1.4586 7.1433-7.3197 9.4272-9.5377 15.453 5.6508-6.5754 11.037-7.2321 9.5377-15.453z" display="inline"/><path d="m178.08 213.06c2.2827-3.0177 9.4628-10.159 11.172-17.862 2.233 8.4314-6.2124 16.348-11.172 17.862z" display="inline"/><path d="m139.84 5.7627s-4.9405 7.2072-13.508 7.4959c6.288 3.1409 9.8573-3.241 13.508-7.4959z" display="inline"/><path d="m146.33 13.265s-1.7169 1.3719-10.284 1.6606c4.5812 1.8483 7.0732 0.71384 10.284-1.6606z" display="inline"/><path d="m179.95 41.688s-9.1573-5.5855-13.827-8.3913c-4.9905-2.9985-5.1609-1.6114-12.477-0.37134 10.781 0.23943 17.826 5.1281 26.304 8.7626z" display="inline"/></g><path d="m83.476 0.68121c6.2237-0.84868 6.3162-1.3627 10.467-0.62147-6.0189 0.27714-9.4375 1.5921-10.876 4.492-0.27835 0.56122-0.15493-2.8447 0.40887-3.8705z" display="inline" fill-rule="evenodd"/><ellipse transform="rotate(11.69)" cx="94.015" cy="-18.564" rx="1.0511" ry=".62285" display="inline" style="paint-order:normal"/><g fill-opacity=".99505" fill-rule="evenodd"><path d="m67.616 208.11c-9.2971 5.3292 3.6568-6.7962-19.807-3.498 5.8958-2.9535 15.962-1.3841 19.807 3.498z" display="inline"/><path d="m33.359 171.69c-0.17796-4.4489-0.25065-7.833-2.7814-9.8998-2.0806-1.6992-3.7727-3.0931-12.794-5.3356 23.066 12.124 1.5482 12.567 15.576 15.235z" display="inline"/><path d="m23.389 153.54c-1.1197-7.0051 0.09159-9.3705-2.27-14.161-1.2577-2.5514-4.5953-4.2825-8.1185-5.9703 2.5728 2.2453 3.9407 2.8988 5.4469 6.4244s3.0892 10.476 4.9416 13.707z" display="inline"/><path d="m40.646 184.53s2.6028 0.0152-0.14166-6.3365c-1.0655-2.4659-8.4389-2.4633-13.531-3.0513 2.2608 0.62953 4.1947 1.0756 5.8516 1.5224 1.6569 0.44682 3.0367 0.89439 4.1895 1.5269 1.1527 0.63255 7.2819 3.5746-4.2671 6.7589 4.3913-0.53882 5.9211-0.0374 7.8989-0.42048z" display="inline"/><path d="m36.228 190.38c5.2739 3.3938 14.805 3.2423 7.7852 7.3457 4.2031-0.42761 6.0553-0.36218 7.5161-0.21328 3.9869-4.08-5.61-6.5513-15.301-7.1324z" display="inline"/><path d="m155.47 223.63c5.5942 0.51611 18.73-9.7222 11.441-12.866-2.1796-0.94002 3.1041-2.5884 4.4215-2.5222-0.14258 2.2243-0.74386 6.2764-1.8033 8.4259-3.2258 3.9902-7.0924 7.8276-14.059 6.962z" display="inline"/><path d="m140.03 221.42c3.2523-0.4962 5.4861-2.0956 7.2544-0.78891 1.2472 2.752-3.1399 5.6012-3.7803 9.1295 1.2124-1.8702 6.7266-8.818 7.1585-11.175-6.2226-2.1453-7.7119 1.6115-10.633 2.8345z" display="inline"/><path d="m118.65 223.24c3.2523-0.4962 6.2978 0.61619 8.0661 1.9228-1.3688 1.4837-3.1399 4.1743-8.8537 8.1782 1.9259-0.68114 9.0255-3.8238 12.232-10.224-6.4604-1.4318-10.347-1.9722-11.444 0.12276z" display="inline"/><path d="m90.701 221.67c9.8312 1.1129 13.613 1.7888 13.954 3.254-0.46674 3.19-1.9452 2.9109-5.7912 4.608 4.4316 0.0248 7.0691-2.4994 8.4452-5.5438-6.5902-3.3783-12.532-3.4915-16.608-2.3182z" display="inline"/><path d="m80.33 222.2c0.9004-3.0858 3.6084-5.5949-15.85-5.5318 10.267-2.3306 11.37-2.6383 21.515 2.227z" display="inline"/><path d="m19.014 130.76c1.7446-7.8269 2.7166-10.829-7.6541-19.038-1.079 9.2201 6.91 2.3991 7.6541 19.038z" display="inline"/><path d="m18.116 88.282c1.8563 2.2159 7.1841 10.859 1.6074 20.59 0.6575-5.4351-1.0945-15.894-5.1908-15.093 1.5106-3.3218 1.3664-2.1805 3.5834-5.4961z" display="inline"/><path d="m29.279 67.528c-1.8568 2.2161-3.9973 2.2296-5.7615 8.646 7.4008-6.896 4.6457-1.29 8.3877 6.4493 0.53301-7.1345-0.40918-11.78-2.6262-15.095z" display="inline"/><path d="m45.199 52.535c-2.4232 1.3214-4.7932 1.4691-8.8722 7.6404 5.0779-3.918 9.431-5.8592 7.8017 4.9054 1.9108-4.9747 2.8597-8.9094 1.0705-12.546z" display="inline"/><path d="m60.492 40.128c-2.4232 1.3214-2.1277 0.45808-7.7693 4.4234 6.2548-2.522 7.0362-3.4737 8.2189 5.1316 0.01863-3.4165 0.05271-5.9186-0.44967-9.555z" display="inline"/><path d="m66.49 39.758c2.0549-2.661 4.6573-3.8921 9.0015-6.0404-6.388 1.6301-8.2236 3.0094-9.0015 6.0404z" display="inline"/></g></g></g><g transform="translate(-1389.3 887.7)"><path d="m1538.4-887.7a149.1 146.48 0 0 0-149.1 146.48 149.1 146.48 0 0 0 149.1 146.48 149.1 146.48 0 0 0 149.09-146.48 149.1 146.48 0 0 0-149.09-146.48zm37.304 36.644a74.548 73.242 0 0 1 74.548 73.245 74.548 73.242 0 0 1-74.548 73.24 74.548 73.242 0 0 1-74.544-73.24 74.548 73.242 0 0 1 74.544-73.245zm-43.33 280.16v64.935h13.507v-64.935zm-115.3 15.6c-2.7268 0-5.0101 0.4648-6.8491 1.3948-1.8178 0.90892-3.2974 2.0506-4.4388 3.4245-1.1203 1.3528-1.9766 2.6847-2.5684 3.9953h-0.6018v-8.1808h-13.318v66.964h13.508v-26.062h0.4116c0.613 1.3528 1.5009 2.6947 2.6635 4.0263 1.1626 1.3105 2.653 2.3996 4.4709 3.2663 1.8389 0.86665 4.0687 1.2997 6.6898 1.2997 3.6991 0 7.0388-0.95137 10.019-2.8538 3.0016-1.9235 5.3691-4.745 7.1024-8.4652 1.1766-2.5091 1.9489-5.4081 2.3364-8.6778 0.44 2.9901 1.2878 5.7275 2.5597 8.2022 1.9446 3.7625 4.7036 6.6999 8.2759 8.8137 3.5934 2.0926 7.8527 3.1391 12.778 3.1391s9.1736-1.0465 12.746-3.1391c3.5934-2.1138 6.3623-5.0512 8.307-8.8137 1.2206-2.3749 2.0576-4.9876 2.512-7.8372 0.4545 2.8495 1.2915 5.4623 2.5121 7.8372 1.9447 3.7625 4.7027 6.6999 8.275 8.8137 3.5934 2.0926 7.8528 3.1391 12.778 3.1391s9.1736-1.0465 12.746-3.1391c3.5935-2.1138 6.3624-5.0512 8.307-8.8137 1.9447-3.7837 2.9169-8.1699 2.9169-13.158 0-5.0308-0.9722-9.4279-2.9169-13.19-1.9446-3.7836-4.7135-6.722-8.307-8.8146-3.5722-2.1138-7.8207-3.1702-12.746-3.1702s-9.1845 1.0564-12.778 3.1702c-3.5723 2.0926-6.3303 5.031-8.275 8.8146-1.2205 2.3616-2.0576 4.974-2.5121 7.8352-0.4544-2.8612-1.2915-5.4737-2.512-7.8352-1.9447-3.7836-4.7136-6.722-8.307-8.8146-3.5723-2.1138-7.8208-3.1702-12.746-3.1702s-9.1844 1.0564-12.778 3.1702c-3.5723 2.0926-6.3313 5.031-8.2759 8.8146-1.2542 2.4264-2.0969 5.1211-2.5422 8.075-0.388-3.4142-1.1869-6.3986-2.417-8.9311-1.7967-3.7202-4.196-6.5-7.1975-8.339-3.0016-1.8601-6.2779-2.7897-9.829-2.7897zm178.61 0c-2.7268 0-5.01 0.4648-6.8491 1.3948-1.8178 0.90892-3.2974 2.0506-4.4388 3.4245-1.1203 1.3528-1.9756 2.6847-2.5674 3.9953h-0.6028v-8.1808h-13.317v66.964h13.507v-26.062h0.4126c0.613 1.3528 1.4999 2.6947 2.6625 4.0263 1.1626 1.3105 2.6531 2.3996 4.4709 3.2663 1.839 0.86665 4.0688 1.2997 6.6898 1.2997 3.6992 0 7.0389-0.95137 10.019-2.8538 3.0016-1.9235 5.3691-4.745 7.1024-8.4652 1.7544-3.7414 2.6324-8.3288 2.6324-13.761 0-5.5804-0.8988-10.22-2.6955-13.919-1.7967-3.7202-4.196-6.5-7.1975-8.339-3.0016-1.8601-6.2779-2.7897-9.829-2.7897zm48.049 0c-3.2975 0-6.1298 0.82453-8.4972 2.4733s-4.0581 3.8994-5.0727 6.7529h-0.5708v-8.5924h-12.873v48.701h13.507v-29.234c0-1.7967 0.3488-3.3605 1.0464-4.6922 0.6975-1.3528 1.638-2.3993 2.8217-3.1391 1.2048-0.76096 2.5576-1.1415 4.0584-1.1415 2.2194 0 4.0062 0.70857 5.359 2.1248 1.374 1.4162 2.0607 3.318 2.0607 5.7066v30.375h13.094v-29.74c0-2.5365 0.6878-4.577 2.0617-6.1201 1.374-1.5642 3.2866-2.3461 5.7386-2.3461 2.156 0 3.9528 0.67685 5.3901 2.0297 1.4374 1.3528 2.1559 3.3814 2.1559 6.0871v30.09h13.476v-32.752c0-5.2844-1.4271-9.3644-4.2807-12.239-2.8324-2.8959-6.521-4.3438-11.066-4.3438-3.5723 0-6.6692 0.84534-9.2903 2.5364-2.5999 1.6699-4.3966 3.8997-5.3901 6.6898h-0.5067c-0.7821-2.8325-2.3469-5.0731-4.6932-6.7219-2.3463-1.6699-5.1895-2.5043-8.5293-2.5043zm-183.56 10.305c2.2406 0 4.1117 0.64514 5.6125 1.9346 1.5008 1.2894 2.6315 3.0435 3.3924 5.263 0.7822 2.2195 1.1736 4.7456 1.1736 7.578 0 2.8324-0.3914 5.3586-1.1736 7.578-0.7609 2.2195-1.8916 3.9736-3.3924 5.263-1.5008 1.2683-3.3719 1.9025-5.6125 1.9025-2.2617 0-4.1635-0.63425-5.7065-1.9025-1.522-1.2894-2.6745-3.0435-3.4566-5.263-0.7609-2.2194-1.1415-4.7456-1.1415-7.578 0-2.8325 0.3806-5.3586 1.1415-7.578 0.7821-2.2195 1.9346-3.9736 3.4566-5.263 1.543-1.2894 3.4448-1.9346 5.7065-1.9346zm47.13 0c2.2406 0 4.1116 0.64514 5.6124 1.9346 1.5008 1.2894 2.6315 3.0435 3.3925 5.263 0.7821 2.2195 1.1735 4.7456 1.1735 7.578 0 2.8324-0.3914 5.3586-1.1735 7.578-0.761 2.2195-1.8917 3.9736-3.3925 5.263-1.5008 1.2683-3.3718 1.9025-5.6124 1.9025-2.2617 0-4.1635-0.63425-5.7065-1.9025-1.522-1.2894-2.6746-3.0435-3.4567-5.263-0.7609-2.2194-1.1415-4.7456-1.1415-7.578 0-2.8325 0.3806-5.3586 1.1415-7.578 0.7821-2.2195 1.9347-3.9736 3.4567-5.263 1.543-1.2894 3.4448-1.9346 5.7065-1.9346zm-94.545 0.4436c2.2195 0 4.0905 0.60253 5.6124 1.8074s2.6735 2.8747 3.4556 5.0096 1.1735 4.6085 1.1735 7.4198c0 2.8324-0.4014 5.3368-1.2046 7.5139-0.7821 2.156-1.9346 3.8477-3.4565 5.0737-1.5219 1.2048-3.3821 1.8074-5.5804 1.8074-2.1772 0-4.0264-0.5926-5.5483-1.7763-1.5219-1.2049-2.6844-2.8846-3.4877-5.0407-0.8032-2.156-1.2045-4.6821-1.2045-7.578s0.4013-5.4111 1.2045-7.546c0.8033-2.1349 1.9549-3.784 3.4556-4.9465 1.522-1.1626 3.3821-1.7443 5.5804-1.7443zm178.61 0c2.2194 0 4.0895 0.60253 5.6114 1.8074 1.522 1.2048 2.6745 2.8747 3.4566 5.0096s1.1725 4.6085 1.1725 7.4198c0 2.8324-0.4014 5.3368-1.2046 7.5139-0.782 2.156-1.9336 3.8477-3.4556 5.0737-1.5219 1.2048-3.382 1.8074-5.5803 1.8074-2.1772 0-4.0274-0.5926-5.5493-1.7763-1.5219-1.2049-2.6844-2.8846-3.4877-5.0407-0.8032-2.156-1.2045-4.6821-1.2045-7.578s0.4013-5.4111 1.2045-7.546c0.8033-2.1349 1.9558-3.784 3.4566-4.9465 1.5219-1.1626 3.3821-1.7443 5.5804-1.7443zm-34.479 24.256c-2.0926 0-3.8893 0.73931-5.3901 2.219-1.4796 1.4796-2.2199 3.2555-2.2199 5.327 0 2.0926 0.7403 3.8894 2.2199 5.3901 1.5008 1.4796 3.2975 2.2199 5.3901 2.2199 1.374 0 2.6316-0.33891 3.773-1.0153 1.1415-0.69754 2.0611-1.6172 2.7586-2.7586 0.7187-1.1626 1.0775-2.441 1.0775-3.8361 0-2.0715-0.7601-3.8474-2.2821-5.327-1.5219-1.4796-3.2978-2.219-5.327-2.219z" fill="url(#linearGradient1091)" stroke-width="7.601" style="paint-order:normal"/></g></svg>
