<?xml version="1.0" encoding="utf-8"?>
<!-- Generator: Adobe Illustrator 24.3.0, SVG Export Plug-In . SVG Version: 6.00 Build 0)  -->
<svg version="1.1" id="Capa_1" xmlns="http://www.w3.org/2000/svg" xmlns:xlink="http://www.w3.org/1999/xlink" x="0px" y="0px"
	 viewBox="0 0 40 40" style="enable-background:new 0 0 40 40;" xml:space="preserve">
<style type="text/css">
	.st0{fill:#1D1D1B;}
</style>
<path class="st0" d="M20.8,25.5c-0.1,0.1-0.2,0.2-0.3,0.2c-0.8,0.8-1.6,1.5-2.3,2.3c-0.2,0.2-0.5,0.4-0.8,0.4c-0.2,0-0.2,0-0.2-0.2
	c0.1-1.5,0.2-3.1,0.3-4.6c0,0,0,0,0-0.1c0-0.6,0-0.5,0.4-0.8c1.6-1.5,3.2-2.9,4.8-4.4c1.5-1.3,3-2.7,4.4-4c0.1-0.1,0.2-0.1,0.2-0.2
	c0.1-0.1,0.1-0.1,0.1-0.2c0-0.1-0.1-0.1-0.2-0.1c-0.2,0-0.3,0.1-0.5,0.1c-0.2,0.1-0.4,0.3-0.6,0.4c-3.8,2.4-7.6,4.8-11.4,7.2
	c-0.1,0.1-0.2,0.1-0.4,0c-1.7-0.5-3.3-1-5-1.6c-0.2-0.1-0.4-0.2-0.6-0.3c-0.3-0.2-0.4-0.6-0.1-0.9c0.2-0.2,0.5-0.4,0.8-0.5
	c1.1-0.4,2.2-0.9,3.3-1.3c3-1.2,6-2.3,9-3.5c2.7-1,5.4-2.1,8.1-3.1c0.2-0.1,0.4-0.1,0.6-0.1c0.4,0,0.7,0.2,0.9,0.6
	c0.1,0.3,0.1,0.6,0.1,0.9c-0.1,0.6-0.2,1.2-0.4,1.9c-0.6,2.8-1.2,5.6-1.8,8.4c-0.5,2.1-0.9,4.2-1.4,6.3c-0.1,0.3-0.1,0.5-0.3,0.7
	c-0.2,0.4-0.6,0.5-1,0.4c-0.3,0-0.5-0.2-0.7-0.3c-1.6-1.2-3.1-2.3-4.7-3.5C21.1,25.7,20.9,25.6,20.8,25.5z"/>
</svg>
