<?xml version="1.0" encoding="utf-8"?>
<!-- Generator: Adobe Illustrator 26.0.0, SVG Export Plug-In . SVG Version: 6.00 Build 0)  -->
<svg version="1.1" id="Capa_1" xmlns="http://www.w3.org/2000/svg" xmlns:xlink="http://www.w3.org/1999/xlink" x="0px" y="0px"
	 viewBox="0 0 40 40" style="enable-background:new 0 0 40 40;" xml:space="preserve">
<style type="text/css">
	.st0{fill:#FFFFFF;}
</style>
<path class="st0" d="M7.01,28.23c2.92,0.28,5.52-0.46,7.84-2.22c0-0.01,0-0.02,0-0.03c-0.02,0-0.04-0.01-0.06-0.01
	c-0.33-0.02-0.65-0.05-0.97-0.13c-1.53-0.36-2.7-1.21-3.5-2.57c-0.17-0.28-0.3-0.58-0.41-0.89c-0.01-0.03-0.02-0.05-0.03-0.08
	c0-0.01,0-0.01,0-0.02c0.27,0.02,0.53,0.05,0.8,0.07c0.26,0.02,0.53,0,0.79-0.03c0.26-0.03,0.53-0.07,0.78-0.16
	c-1.74-0.42-3.01-1.41-3.78-3.03c-0.33-0.69-0.56-1.9-0.46-2.26c0.6,0.32,1.25,0.53,1.93,0.61c0.15,0.02,0.3,0.02,0.45,0.03
	c-1.62-1.2-2.43-2.79-2.34-4.81c0.04-0.82,0.28-1.59,0.7-2.32c1.33,1.62,2.91,2.91,4.76,3.88c0.93,0.49,1.91,0.87,2.93,1.16
	c0.83,0.23,1.67,0.4,2.53,0.49c0.27,0.03,0.54,0.05,0.83,0.07c-0.01-0.06-0.01-0.1-0.02-0.14c-0.11-0.55-0.14-1.1-0.08-1.66
	c0.19-1.85,1.35-3.48,3.06-4.28c0.46-0.21,0.94-0.36,1.44-0.44c0.38-0.06,0.77-0.08,1.16-0.05c1.35,0.1,2.52,0.62,3.47,1.58
	c0.08,0.08,0.14,0.09,0.25,0.07c1.11-0.23,2.15-0.64,3.13-1.2c0.02-0.01,0.04-0.02,0.06-0.04c0.01,0,0.01,0,0.02-0.01
	c0,0.24-0.49,1.17-0.88,1.66c-0.4,0.5-0.87,0.91-1.4,1.25c0.52-0.04,1.02-0.15,1.52-0.28c0.5-0.13,0.99-0.31,1.47-0.51
	c0.01,0.05-0.02,0.07-0.04,0.09c-0.48,0.7-1.04,1.34-1.67,1.9c-0.27,0.24-0.55,0.46-0.83,0.68c-0.06,0.04-0.07,0.09-0.07,0.16
	c0.01,0.35,0.02,0.7,0,1.06c-0.01,0.37-0.04,0.75-0.08,1.12c-0.09,0.81-0.24,1.6-0.45,2.38c-0.55,1.99-1.43,3.82-2.68,5.46
	c-1.45,1.91-3.26,3.4-5.44,4.42c-1.01,0.47-2.06,0.82-3.15,1.05c-0.44,0.09-0.88,0.17-1.33,0.22c-0.35,0.04-0.69,0.07-1.04,0.09
	c-0.29,0.02-0.58,0.04-0.88,0.04c-0.36,0-0.72-0.01-1.08-0.04c-0.35-0.02-0.69-0.05-1.04-0.09c-0.49-0.06-0.98-0.15-1.46-0.26
	c-1.52-0.35-2.94-0.91-4.29-1.7c-0.14-0.08-0.27-0.16-0.41-0.25C7.04,28.26,7.03,28.25,7.01,28.23z"/>
</svg>
