<?xml version="1.0" encoding="utf-8"?>
<!-- Generator: Adobe Illustrator 26.0.0, SVG Export Plug-In . SVG Version: 6.00 Build 0)  -->
<svg version="1.1" id="Capa_1" xmlns="http://www.w3.org/2000/svg" xmlns:xlink="http://www.w3.org/1999/xlink" x="0px" y="0px"
	 viewBox="0 0 40 40" style="enable-background:new 0 0 40 40;" xml:space="preserve">
<style type="text/css">
	.st0{fill:#FFFFFF;}
</style>
<path class="st0" d="M19.84,10.37c0.61,0,1.23,0,1.84,0c0.53,0,1.06,0.01,1.59,0.02c0.28,0,0.56,0.01,0.84,0.02
	c0.46,0.01,0.91,0.03,1.37,0.04c0.34,0.01,0.67,0.03,1.01,0.04c0.33,0.02,0.66,0.04,0.98,0.06c0.28,0.02,0.56,0.03,0.84,0.05
	c0.31,0.02,0.61,0.05,0.92,0.08c0.36,0.04,0.71,0.08,1.06,0.14c0.65,0.11,1.25,0.36,1.76,0.79c0.59,0.49,0.98,1.12,1.15,1.87
	c0.16,0.68,0.27,1.37,0.35,2.06c0.05,0.42,0.08,0.84,0.12,1.26c0.03,0.36,0.04,0.71,0.07,1.07c0.06,0.87,0.04,1.74,0.04,2.61
	c0,0.41-0.01,0.81-0.02,1.22c-0.02,0.44-0.05,0.87-0.08,1.31c-0.03,0.44-0.07,0.88-0.12,1.32c-0.08,0.75-0.19,1.5-0.36,2.24
	c-0.11,0.48-0.34,0.91-0.65,1.29c-0.57,0.71-1.32,1.12-2.21,1.26c-0.48,0.07-0.97,0.14-1.46,0.19c-0.3,0.03-0.6,0.05-0.9,0.07
	c-0.27,0.02-0.53,0.04-0.8,0.06c-0.17,0.01-0.34,0.02-0.51,0.03c-0.24,0.01-0.49,0.03-0.73,0.04c-0.01,0-0.03,0-0.04,0
	c-0.28,0.01-0.57,0.02-0.85,0.02c-0.34,0.01-0.69,0.03-1.03,0.04c-0.03,0-0.06,0-0.09,0c-0.86,0.01-1.72,0.02-2.58,0.03
	c-0.52,0.01-1.03,0.02-1.55,0.02c-0.69,0-1.39-0.01-2.08-0.02c-0.35,0-0.71-0.01-1.06-0.02c-0.5-0.01-0.99-0.03-1.49-0.04
	c-0.36-0.01-0.72-0.03-1.07-0.04c-0.34-0.02-0.69-0.04-1.03-0.06c-0.18-0.01-0.36-0.01-0.55-0.03c-0.26-0.02-0.51-0.04-0.76-0.06
	c-0.21-0.02-0.42-0.03-0.62-0.05c-0.64-0.06-1.29-0.12-1.92-0.27c-0.49-0.12-0.93-0.35-1.31-0.68c-0.62-0.52-1.01-1.18-1.18-1.97
	c-0.12-0.56-0.21-1.13-0.28-1.71c-0.04-0.32-0.07-0.65-0.1-0.97c-0.02-0.24-0.03-0.49-0.05-0.73c-0.02-0.34-0.04-0.68-0.06-1.03
	c0-0.03,0-0.05,0-0.08c-0.01-0.72-0.02-1.45-0.02-2.17c0-0.17,0-0.34,0-0.52c0.01-0.39,0.03-0.79,0.04-1.18
	c0.01-0.22,0.01-0.43,0.03-0.65c0.01-0.17,0.02-0.34,0.04-0.51c0.02-0.21,0.03-0.42,0.05-0.63c0.02-0.26,0.04-0.52,0.07-0.77
	c0.06-0.46,0.12-0.92,0.19-1.38c0.06-0.4,0.14-0.8,0.31-1.17c0.22-0.48,0.52-0.89,0.92-1.23c0.36-0.31,0.76-0.54,1.22-0.67
	c0.23-0.07,0.47-0.11,0.71-0.14c0.49-0.07,0.99-0.13,1.48-0.18c0.4-0.04,0.8-0.07,1.2-0.1c0.29-0.02,0.58-0.03,0.87-0.05
	c0.36-0.02,0.73-0.04,1.09-0.06c0.01,0,0.02,0,0.03,0c0.3-0.01,0.6-0.01,0.9-0.02c0.37-0.01,0.73-0.03,1.09-0.04
	c0.03,0,0.06,0,0.09,0C17.64,10.38,18.74,10.37,19.84,10.37C19.84,10.37,19.84,10.37,19.84,10.37z M17.33,24.12
	c2.41-1.38,4.79-2.75,7.19-4.12c-0.03-0.02-0.04-0.03-0.06-0.04c-2.37-1.36-4.74-2.71-7.11-4.07c0,0-0.01,0-0.01,0
	c0,0-0.01,0-0.01,0.01C17.33,18.62,17.33,21.36,17.33,24.12z"/>
</svg>
