<svg xmlns="http://www.w3.org/2000/svg" xmlns:xlink="http://www.w3.org/1999/xlink" width="185.29" height="37.17" viewBox="0 0 185.29 37.17"><defs><linearGradient id="a" x1="1.61" y1="19.29" x2="19.73" y2="8.82" gradientTransform="matrix(1, 0, 0, -1, -0.85, 28.57)" gradientUnits="userSpaceOnUse"><stop offset="0" stop-color="#3469a9"/><stop offset="1" stop-color="#3e3c7a"/></linearGradient></defs><path d="M62.44,10H75.72V12.5H70.66V29H67.53V12.5H62.44Z" transform="translate(0 0.03)" fill="#3469a9"/><path d="M77.64,9.9a2,2,0,1,1,2,2A2,2,0,0,1,77.64,9.9Zm.41,4h3.1V29h-3.1Z" transform="translate(0 0.03)" fill="#3469a9"/><path d="M105.86,20.57c0-2.77-1.51-4.2-3.78-4.2s-3.81,1.43-3.81,4.2V29H95.15V20.57c0-2.77-1.5-4.2-3.78-4.2s-3.8,1.43-3.8,4.2V29H84.46V13.9h3.13v1.73a5.7,5.7,0,0,1,4.46-2,5.83,5.83,0,0,1,5.42,3,5.92,5.92,0,0,1,5.26-3c3.54,0,6.22,2.22,6.22,6.44V29h-3.09Z" transform="translate(0 0.03)" fill="#3469a9"/><path d="M118.6,29.24c-4.33,0-7.54-3.07-7.54-7.81s3.07-7.78,7.54-7.78a7,7,0,0,1,7.34,6.64,5.21,5.21,0,0,1,0,.79,9.84,9.84,0,0,1-.11,1.53H114.29a4.17,4.17,0,0,0,4.31,4,3.65,3.65,0,0,0,3.55-2.11h3.37A6.91,6.91,0,0,1,118.6,29.24Zm-4.28-9.15h8.36a3.92,3.92,0,0,0-4-3.82h-.2A4.11,4.11,0,0,0,114.32,20.09Z" transform="translate(0 0.03)" fill="#3469a9"/><path d="M128.15,8.72h3.13V29h-3.13Z" transform="translate(0 0.03)" fill="#3469a9"/><path d="M134.15,9.9a2,2,0,1,1,2,2A2,2,0,0,1,134.15,9.9Zm.41,4h3.13V29h-3.13Z" transform="translate(0 0.03)" fill="#3469a9"/><path d="M151.71,20.57c0-2.77-1.5-4.2-3.78-4.2s-3.78,1.42-3.78,4.2V29H141V13.9h3.13v1.73a5.76,5.76,0,0,1,4.49-2c3.53,0,6.19,2.22,6.19,6.44V29h-3.1Z" transform="translate(0 0.03)" fill="#3469a9"/><path d="M164.45,29.24c-4.33,0-7.53-3.07-7.53-7.81s3.07-7.78,7.53-7.78a7,7,0,0,1,7.34,6.64,5.21,5.21,0,0,1,0,.79,8.75,8.75,0,0,1-.11,1.53H160.15a4.15,4.15,0,0,0,4.29,4h0A3.62,3.62,0,0,0,168,24.5h3.37A6.89,6.89,0,0,1,164.45,29.24Zm-4.3-9.15h8.35a3.92,3.92,0,0,0-4-3.82h-.2A4.12,4.12,0,0,0,160.15,20.09Z" transform="translate(0 0.03)" fill="#3469a9"/><path d="M179.52,29.24c-3.62,0-6.16-2.14-6.3-4.88h3.23a2.75,2.75,0,0,0,3,2.25c1.81,0,2.77-.77,2.77-1.81,0-3-8.76-1.26-8.76-6.79,0-2.41,2.24-4.36,5.8-4.36s5.67,1.84,5.84,4.85H182c-.1-1.31-1.12-2.22-2.82-2.22s-2.54.69-2.54,1.7c0,3,8.51,1.34,8.68,6.79C185.3,27.32,183.08,29.24,179.52,29.24Z" transform="translate(0 0.03)" fill="#3469a9"/><path d="M54,26.44H52.8a7.21,7.21,0,0,1-1.23-.23h-.06l-.27-.09a6,6,0,0,1-2.18-1.31,6.34,6.34,0,0,1-2-4.66v-1.4A6.29,6.29,0,0,1,48.8,14.4a5.85,5.85,0,0,1,2.35-1.56,6.12,6.12,0,0,1,2.16-.39h.61a6.26,6.26,0,0,1,5,2.47l2-2a9.4,9.4,0,0,0-7.39-3.23A9.52,9.52,0,0,0,43.81,19v.4A9.83,9.83,0,0,0,60.88,26l-2-2A6.26,6.26,0,0,1,54,26.44Z" transform="translate(0 0.03)" fill="#3469a9"/><path d="M23.93,6.47V11a20.18,20.18,0,0,1-.78,5.46,2.61,2.61,0,0,0,1.22,3L29.7,22.5a2.63,2.63,0,0,0,3.62-.87,2.69,2.69,0,0,0,.38-1.41V12.09a5.6,5.6,0,0,0-2.81-4.86L21.15,1.57A5.62,5.62,0,0,1,23.93,6.47Z" transform="translate(0 0.03)" fill="#3469a9"/><path d="M21.33,24.71a2.62,2.62,0,0,0-3.18.43,20,20,0,0,1-4.35,3.37L9.9,30.76a5.59,5.59,0,0,1-5.62,0L14,36.39a5.64,5.64,0,0,0,5.62,0l7-4a2.63,2.63,0,0,0,0-4.56Z" transform="translate(0 0.03)" fill="#3469a9"/><path d="M11.22,23.89A20.25,20.25,0,0,0,18.64,11a2,2,0,0,1,2.25-1.71,2,2,0,0,1,.75.26L24,10.9V6.47a5.62,5.62,0,0,0-2.81-4.9L19.68.72a5.64,5.64,0,0,0-5.62,0L2.81,7.23A5.6,5.6,0,0,0,0,12.09v13A5.6,5.6,0,0,0,2.81,30h0l1.47.85a5.59,5.59,0,0,0,5.62,0l3.9-2.25h-.06l-2.29-1.36a2,2,0,0,1-.72-2.73A2.06,2.06,0,0,1,11.22,23.89ZM7.85,17.42a3.55,3.55,0,1,1,4-1.06A3.56,3.56,0,0,1,7.85,17.42Z" transform="translate(0 0.03)" fill="url(#a)"/></svg>