<?xml version="1.0" standalone="no"?>
<!DOCTYPE svg PUBLIC "-//W3C//DTD SVG 20010904//EN"
 "http://www.w3.org/TR/2001/REC-SVG-20010904/DTD/svg10.dtd">
<svg version="1.0" xmlns="http://www.w3.org/2000/svg"
 width="600.000000pt" height="600.000000pt" viewBox="0 0 600.000000 600.000000"
 preserveAspectRatio="xMidYMid meet">
<metadata>
Created by potrace 1.14, written by Peter Selinger 2001-2017
</metadata>
<g transform="translate(0.000000,600.000000) scale(0.100000,-0.100000)"
fill="#000000" stroke="none">
<path d="M2915 5779 c-22 -4 -58 -9 -80 -12 -40 -6 -124 -33 -180 -58 -16 -8
-111 -60 -210 -117 -99 -57 -205 -118 -235 -134 -30 -17 -62 -37 -71 -44 -8
-8 -18 -14 -22 -14 -3 0 -86 -46 -184 -103 -98 -57 -293 -170 -433 -251 -140
-81 -262 -151 -270 -156 -8 -5 -91 -53 -185 -106 -248 -142 -315 -195 -407
-324 -58 -81 -119 -212 -133 -285 -4 -16 -9 -46 -13 -65 -10 -49 -9 -2186 1
-2237 39 -206 175 -418 342 -533 35 -24 319 -191 445 -262 25 -14 61 -34 80
-45 81 -47 366 -212 510 -296 85 -49 174 -100 197 -113 23 -13 140 -81 260
-151 120 -70 256 -146 303 -169 159 -80 340 -107 511 -78 153 27 178 38 603
283 23 13 84 48 136 79 52 31 97 57 100 57 3 0 32 16 65 36 33 20 152 90 264
154 112 65 219 131 237 147 124 109 163 305 91 461 -38 83 -88 130 -224 212
-68 41 -126 75 -128 75 -2 0 -36 19 -77 43 -40 24 -93 55 -118 69 -25 14 -130
74 -235 134 -207 119 -222 127 -278 144 -75 23 -200 9 -278 -30 -21 -11 -89
-68 -151 -126 -126 -120 -265 -234 -383 -316 -92 -64 -212 -138 -223 -138 -18
0 -369 214 -400 243 -79 75 -110 197 -77 299 25 74 42 95 163 200 122 105 249
231 337 333 33 38 68 78 77 89 35 39 177 244 230 331 166 275 298 605 363 905
17 77 35 173 40 210 7 51 46 133 78 168 59 64 175 104 260 91 58 -10 95 -27
300 -144 l157 -90 -5 -115 c-3 -63 -7 -131 -9 -150 -3 -19 -8 -62 -11 -95 -5
-56 -28 -197 -40 -255 -22 -101 -40 -175 -54 -218 -15 -48 -7 -179 14 -232 46
-113 106 -171 270 -260 33 -18 65 -36 70 -40 8 -6 397 -231 505 -292 19 -11
64 -37 100 -58 89 -52 159 -71 246 -66 151 9 267 87 337 226 l32 65 0 725 c0
675 -1 730 -19 795 -22 83 -81 215 -122 270 -118 163 -137 177 -603 446 -51
30 -113 65 -136 79 -39 23 -240 138 -290 166 -11 6 -60 35 -110 64 -87 51
-118 69 -187 109 -73 41 -371 213 -488 281 -173 100 -244 135 -325 158 -109
32 -251 45 -330 31z m-915 -1603 c120 -42 212 -111 278 -208 39 -57 71 -128
78 -177 3 -20 8 -39 10 -43 6 -10 6 -140 -1 -168 -3 -14 -8 -35 -11 -47 -14
-69 -80 -180 -142 -240 -69 -67 -172 -124 -257 -141 -41 -9 -192 -8 -235 1
-19 4 -67 23 -107 43 -338 164 -402 616 -122 868 58 53 169 111 240 126 61 13
215 5 269 -14z"/>
</g>
</svg>
