<?xml version="1.0" encoding="utf-8"?>
<!-- Generator: Adobe Illustrator 26.0.0, SVG Export Plug-In . SVG Version: 6.00 Build 0)  -->
<svg version="1.1" id="Capa_1" xmlns="http://www.w3.org/2000/svg" xmlns:xlink="http://www.w3.org/1999/xlink" x="0px" y="0px"
	 viewBox="0 0 40 40" style="enable-background:new 0 0 40 40;" xml:space="preserve">
<style type="text/css">
	.st0{fill:#FFFFFF;}
</style>
<path class="st0" d="M28.3,17.2c0-0.7-0.4-1.5-0.8-2c-1-1.1-2.1-2.1-3.2-3.1c-0.6-0.6-1.3-1.2-1.9-1.9c-0.6-0.6-1.3-0.9-2.2-0.9
	c0,0,0,0,0,0c-1.1,0-2.2,0-3.3,0c-0.9,0-1.7,0-2.6,0c-1.7,0-2.6,0.9-2.6,2.6l0,5.6l0,2.3l0,2.3c0,1.9,0,3.8,0,5.7
	c0,1.6,0.9,2.6,2.5,2.6c1.9,0,3.9,0,5.8,0c1.9,0,3.9,0,5.8,0c1.6,0,2.5-0.9,2.5-2.5l0-1.8C28.4,23.3,28.4,20.2,28.3,17.2z
	 M13.8,24.9l0-12.7c0-0.1,0-0.5,0-0.6c0.1,0,0.5,0,0.6,0l4,0l1.4,0l0,1.1l0,3.4c0,1.2,0.3,1.5,1.4,1.5l5,0c0,0.1,0,0.2,0,0.3l0,3.1
	c0,1.3,0,2.6,0,3.9H13.8z"/>
</svg>
