<?xml version="1.0" encoding="utf-8"?>
<!-- Generator: Adobe Illustrator 26.0.0, SVG Export Plug-In . SVG Version: 6.00 Build 0)  -->
<svg version="1.1" id="Capa_1" xmlns="http://www.w3.org/2000/svg" xmlns:xlink="http://www.w3.org/1999/xlink" x="0px" y="0px"
	 viewBox="0 0 40 40" style="enable-background:new 0 0 40 40;" xml:space="preserve">
<style type="text/css">
	.st0{fill:#FFFFFF;}
</style>
<g>
	<path class="st0" d="M21.35,20.03c0.04-3.29-2.62-5.99-5.93-6.03c-3.23-0.04-5.95,2.64-5.99,5.89c-0.04,3.36,2.58,6.07,5.93,6.11
		C18.61,26.04,21.31,23.35,21.35,20.03z"/>
	<path class="st0" d="M21.93,20.28c-0.01,0.61,0.1,1.49,0.34,2.35c0.25,0.88,0.6,1.71,1.26,2.37c0.86,0.86,1.88,0.86,2.75,0.01
		c0.43-0.42,0.73-0.92,0.95-1.48c0.82-2.1,0.86-4.24,0.24-6.39c-0.25-0.87-0.64-1.68-1.34-2.29c-0.77-0.67-1.67-0.67-2.44-0.01
		c-0.51,0.44-0.85,1-1.11,1.62C22.11,17.59,21.93,18.78,21.93,20.28z"/>
	<path class="st0" d="M30.57,19.51c-0.05-0.53-0.1-1.56-0.24-2.57c-0.08-0.57-0.28-1.12-0.47-1.67c-0.04-0.13-0.23-0.3-0.35-0.3
		c-0.12,0-0.29,0.16-0.36,0.29c-0.14,0.31-0.27,0.63-0.34,0.96c-0.48,2.37-0.47,4.75-0.09,7.13c0.08,0.49,0.25,0.97,0.45,1.42
		c0.17,0.39,0.45,0.38,0.65,0.01c0.13-0.23,0.23-0.48,0.29-0.73C30.48,22.73,30.54,21.37,30.57,19.51z"/>
</g>
</svg>
