<?xml version="1.0" encoding="utf-8"?>
<!-- Generator: Adobe Illustrator 26.0.0, SVG Export Plug-In . SVG Version: 6.00 Build 0)  -->
<svg version="1.1" id="Capa_1" xmlns="http://www.w3.org/2000/svg" xmlns:xlink="http://www.w3.org/1999/xlink" x="0px" y="0px"
	 viewBox="0 0 40 40" style="enable-background:new 0 0 40 40;" xml:space="preserve">
<style type="text/css">
	.st0{fill:#FFFFFF;}
</style>
<path class="st0" d="M20.77,25.48c-0.1,0.09-0.19,0.17-0.28,0.25c-0.78,0.75-1.56,1.5-2.34,2.26c-0.22,0.22-0.46,0.4-0.78,0.44
	c-0.19,0.03-0.22,0-0.21-0.2c0.11-1.54,0.22-3.07,0.32-4.61c0-0.02,0-0.04,0-0.06c0.03-0.61-0.02-0.45,0.39-0.82
	c1.61-1.46,3.22-2.91,4.83-4.36c1.48-1.34,2.96-2.68,4.45-4.02c0.08-0.07,0.16-0.14,0.23-0.22c0.06-0.06,0.11-0.14,0.07-0.23
	c-0.04-0.09-0.13-0.1-0.22-0.11c-0.18-0.01-0.34,0.05-0.49,0.14c-0.22,0.13-0.43,0.26-0.64,0.4c-3.79,2.39-7.58,4.77-11.36,7.16
	c-0.14,0.09-0.25,0.1-0.41,0.05c-1.66-0.52-3.32-1.04-4.98-1.56c-0.2-0.06-0.41-0.16-0.58-0.28c-0.34-0.23-0.36-0.57-0.08-0.86
	c0.21-0.23,0.48-0.37,0.76-0.49c1.11-0.43,2.22-0.86,3.33-1.29c3.01-1.16,6.02-2.32,9.03-3.48c2.7-1.04,5.39-2.08,8.09-3.12
	c0.2-0.08,0.4-0.12,0.62-0.12c0.43,0.01,0.74,0.24,0.89,0.64c0.1,0.28,0.12,0.57,0.06,0.86c-0.12,0.62-0.25,1.24-0.38,1.87
	c-0.59,2.79-1.18,5.57-1.78,8.36c-0.45,2.11-0.9,4.23-1.35,6.34c-0.06,0.26-0.13,0.51-0.28,0.74c-0.24,0.38-0.58,0.52-1.02,0.43
	c-0.26-0.05-0.5-0.16-0.72-0.32c-1.57-1.16-3.15-2.32-4.73-3.48C21.08,25.7,20.93,25.6,20.77,25.48z"/>
</svg>
