<?xml version="1.0" encoding="utf-8"?>
<!-- Generator: Adobe Illustrator 24.3.0, SVG Export Plug-In . SVG Version: 6.00 Build 0)  -->
<svg version="1.1" id="Capa_1" xmlns="http://www.w3.org/2000/svg" xmlns:xlink="http://www.w3.org/1999/xlink" x="0px" y="0px"
	 viewBox="0 0 40 40" style="enable-background:new 0 0 40 40;" xml:space="preserve">
<style type="text/css">
	.st0{fill:#1D1D1B;}
</style>
<path class="st0" d="M7,28.2c2.9,0.3,5.5-0.5,7.8-2.2c0,0,0,0,0,0c0,0,0,0-0.1,0c-0.3,0-0.6,0-1-0.1c-1.5-0.4-2.7-1.2-3.5-2.6
	c-0.2-0.3-0.3-0.6-0.4-0.9c0,0,0,0,0-0.1c0,0,0,0,0,0c0.3,0,0.5,0,0.8,0.1c0.3,0,0.5,0,0.8,0s0.5-0.1,0.8-0.2c-1.7-0.4-3-1.4-3.8-3
	c-0.3-0.7-0.6-1.9-0.5-2.3c0.6,0.3,1.2,0.5,1.9,0.6c0.1,0,0.3,0,0.4,0c-1.6-1.2-2.4-2.8-2.3-4.8c0-0.8,0.3-1.6,0.7-2.3
	c1.3,1.6,2.9,2.9,4.8,3.9c0.9,0.5,1.9,0.9,2.9,1.2c0.8,0.2,1.7,0.4,2.5,0.5c0.3,0,0.5,0.1,0.8,0.1c0-0.1,0-0.1,0-0.1
	c-0.1-0.6-0.1-1.1-0.1-1.7c0.2-1.9,1.4-3.5,3.1-4.3c0.5-0.2,0.9-0.4,1.4-0.4c0.4-0.1,0.8-0.1,1.2-0.1c1.4,0.1,2.5,0.6,3.5,1.6
	c0.1,0.1,0.1,0.1,0.2,0.1c1.1-0.2,2.1-0.6,3.1-1.2c0,0,0,0,0.1,0c0,0,0,0,0,0c0,0.2-0.5,1.2-0.9,1.7C31,12,30.5,12.4,30,12.7
	c0.5,0,1-0.1,1.5-0.3s1-0.3,1.5-0.5c0,0.1,0,0.1,0,0.1c-0.5,0.7-1,1.3-1.7,1.9c-0.3,0.2-0.5,0.5-0.8,0.7c-0.1,0-0.1,0.1-0.1,0.2
	c0,0.4,0,0.7,0,1.1c0,0.4,0,0.8-0.1,1.1c-0.1,0.8-0.2,1.6-0.5,2.4c-0.5,2-1.4,3.8-2.7,5.5c-1.5,1.9-3.3,3.4-5.4,4.4
	c-1,0.5-2.1,0.8-3.1,1c-0.4,0.1-0.9,0.2-1.3,0.2c-0.4,0-0.7,0.1-1,0.1c-0.3,0-0.6,0-0.9,0c-0.4,0-0.7,0-1.1,0c-0.4,0-0.7,0-1-0.1
	c-0.5-0.1-1-0.1-1.5-0.3c-1.5-0.4-2.9-0.9-4.3-1.7C7.3,28.4,7.2,28.3,7,28.2C7,28.3,7,28.2,7,28.2z"/>
</svg>
