<svg xmlns="http://www.w3.org/2000/svg" xmlns:xlink="http://www.w3.org/1999/xlink" width="185.3" height="37.15" viewBox="0 0 185.3 37.15"><defs><linearGradient id="a" x1="1.6" y1="20.71" x2="19.71" y2="31.17" gradientUnits="userSpaceOnUse"><stop offset="0" stop-color="#3469a9"/><stop offset="1" stop-color="#3e3c7a"/></linearGradient></defs><path d="M63.29,21.39H76.57v2.54H71.51V40.42H68.38V23.93H63.29Z" transform="translate(-0.85 -11.43)" fill="#3469a9"/><path d="M78.49,21.33a2,2,0,1,1,2,2A2,2,0,0,1,78.49,21.33Zm.41,4H82V40.42H78.9Z" transform="translate(-0.85 -11.43)" fill="#3469a9"/><path d="M106.71,32c0-2.77-1.51-4.2-3.78-4.2s-3.81,1.43-3.81,4.2v8.43H96V32c0-2.77-1.5-4.2-3.78-4.2s-3.8,1.43-3.8,4.2v8.43H85.31V25.33h3.13v1.73a5.71,5.71,0,0,1,4.46-2,5.83,5.83,0,0,1,5.42,3,5.92,5.92,0,0,1,5.26-3c3.54,0,6.22,2.22,6.22,6.44v8.9h-3.09Z" transform="translate(-0.85 -11.43)" fill="#3469a9"/><path d="M119.45,40.67c-4.33,0-7.54-3.07-7.54-7.81s3.07-7.78,7.54-7.78a7,7,0,0,1,7.34,7.43,9.84,9.84,0,0,1-.11,1.53H115.14a4.16,4.16,0,0,0,4.31,4A3.66,3.66,0,0,0,123,35.93h3.37A6.9,6.9,0,0,1,119.45,40.67Zm-4.28-9.15h8.36a3.92,3.92,0,0,0-4.22-3.81A4.12,4.12,0,0,0,115.17,31.52Z" transform="translate(-0.85 -11.43)" fill="#3469a9"/><path d="M129,20.15h3.13V40.42H129Z" transform="translate(-0.85 -11.43)" fill="#3469a9"/><path d="M135,21.33a2,2,0,1,1,2,2A2,2,0,0,1,135,21.33Zm.41,4h3.13V40.42h-3.13Z" transform="translate(-0.85 -11.43)" fill="#3469a9"/><path d="M152.56,32c0-2.77-1.5-4.2-3.78-4.2S145,29.22,145,32v8.43h-3.13V25.33H145v1.73a5.77,5.77,0,0,1,4.49-2c3.53,0,6.19,2.22,6.19,6.44v8.9h-3.1Z" transform="translate(-0.85 -11.43)" fill="#3469a9"/><path d="M165.3,40.67c-4.33,0-7.53-3.07-7.53-7.81s3.07-7.78,7.53-7.78a7,7,0,0,1,7.34,7.43,8.75,8.75,0,0,1-.11,1.53H161a4.15,4.15,0,0,0,4.3,4,3.64,3.64,0,0,0,3.56-2.11h3.37A6.9,6.9,0,0,1,165.3,40.67ZM161,31.52h8.35a3.92,3.92,0,0,0-4.22-3.81A4.12,4.12,0,0,0,161,31.52Z" transform="translate(-0.85 -11.43)" fill="#3469a9"/><path d="M180.37,40.67c-3.62,0-6.16-2.14-6.3-4.88h3.23a2.75,2.75,0,0,0,3,2.25c1.81,0,2.77-.77,2.77-1.81,0-3-8.76-1.26-8.76-6.79,0-2.41,2.24-4.36,5.8-4.36s5.67,1.84,5.84,4.85h-3.13c-.1-1.31-1.12-2.22-2.82-2.22s-2.54.69-2.54,1.7c0,3,8.51,1.34,8.68,6.79C186.15,38.75,183.93,40.67,180.37,40.67Z" transform="translate(-0.85 -11.43)" fill="#3469a9"/><path d="M54.81,37.87h-.68a3.85,3.85,0,0,1-.48,0,6.87,6.87,0,0,1-1.23-.23l-.06,0-.27-.09a6,6,0,0,1-2.18-1.31,6.32,6.32,0,0,1-2-4.66V31c0-.06,0-.12,0-.18s0-.12,0-.18v-.46a6.3,6.3,0,0,1,1.74-4.35A5.84,5.84,0,0,1,52,24.27a6.18,6.18,0,0,1,2.16-.39h.61a6.26,6.26,0,0,1,5,2.47l2-2a9.42,9.42,0,0,0-7.39-3.23,9.52,9.52,0,0,0-9.72,9.72A9.83,9.83,0,0,0,61.73,37.4l-2-2A6.27,6.27,0,0,1,54.81,37.87Z" transform="translate(-0.85 -11.43)" fill="#3469a9"/><path d="M24.78,17.9v4.49A20.27,20.27,0,0,1,24,27.85a2.61,2.61,0,0,0,1.22,3l5.33,3.08a2.63,2.63,0,0,0,4-2.28V23.52a5.61,5.61,0,0,0-2.81-4.86L22,13A5.61,5.61,0,0,1,24.78,17.9Z" transform="translate(-0.85 -11.43)" fill="#3469a9"/><path d="M22.18,36.14a2.62,2.62,0,0,0-3.18.43,20.25,20.25,0,0,1-4.35,3.37l-3.9,2.25a5.59,5.59,0,0,1-5.62,0l9.75,5.63a5.64,5.64,0,0,0,5.62,0l7-4a2.63,2.63,0,0,0,0-4.56Z" transform="translate(-0.85 -11.43)" fill="#3469a9"/><path d="M12.07,35.32a20.23,20.23,0,0,0,7.42-12.85,2,2,0,0,1,3-1.45l2.32,1.31V17.9A5.61,5.61,0,0,0,22,13l-1.47-.85a5.64,5.64,0,0,0-5.62,0L3.66,18.66A5.61,5.61,0,0,0,.85,23.52v13a5.61,5.61,0,0,0,2.81,4.86h0l1.47.85a5.59,5.59,0,0,0,5.62,0l3.9-2.25-.06,0L12.3,38.62A2,2,0,0,1,12.07,35.32ZM8.7,28.85a3.55,3.55,0,1,1,4-1.06A3.55,3.55,0,0,1,8.7,28.85Z" transform="translate(-0.85 -11.43)" fill="url(#a)"/></svg>