<svg xmlns="http://www.w3.org/2000/svg" xmlns:xlink="http://www.w3.org/1999/xlink" width="187" height="37.49" viewBox="0 0 187 37.49"><defs><linearGradient id="a" x1="0.76" y1="20.63" x2="19.04" y2="31.18" gradientUnits="userSpaceOnUse"><stop offset="0" stop-color="#f5f5f5"/><stop offset="1" stop-color="#c6c6c5"/></linearGradient></defs><path d="M63,21.31H76.42v2.57H71.3V40.52H68.15V23.88H63Z" transform="translate(0 -11.26)" fill="#f5f5f5"/><path d="M78.35,21.25a2,2,0,1,1,2,2A2,2,0,0,1,78.35,21.25Zm.42,4h3.15V40.52H78.77Z" transform="translate(0 -11.26)" fill="#f5f5f5"/><path d="M106.83,32c0-2.79-1.52-4.23-3.82-4.23S99.17,29.21,99.17,32v8.52H96.05V32c0-2.79-1.52-4.23-3.82-4.23S88.39,29.21,88.39,32v8.52H85.24V25.29h3.15V27a5.77,5.77,0,0,1,4.5-2,5.88,5.88,0,0,1,5.48,3,6,6,0,0,1,5.31-3c3.56,0,6.27,2.24,6.27,6.49v9h-3.12Z" transform="translate(0 -11.26)" fill="#f5f5f5"/><path d="M119.68,40.77c-4.36,0-7.6-3.1-7.6-7.88s3.1-7.85,7.6-7.85a7.1,7.1,0,0,1,7.41,7.49,10.1,10.1,0,0,1-.11,1.55H115.34a4.19,4.19,0,0,0,4.34,4,3.69,3.69,0,0,0,3.6-2.13h3.4A7,7,0,0,1,119.68,40.77Zm-4.31-9.24h8.43a3.94,3.94,0,0,0-4.25-3.84A4.15,4.15,0,0,0,115.37,31.53Z" transform="translate(0 -11.26)" fill="#f5f5f5"/><path d="M129.36,20.06h3.15V40.52h-3.15Z" transform="translate(0 -11.26)" fill="#f5f5f5"/><path d="M135.41,21.25a2,2,0,1,1,2,2A2,2,0,0,1,135.41,21.25Zm.42,4H139V40.52h-3.15Z" transform="translate(0 -11.26)" fill="#f5f5f5"/><path d="M153.11,32c0-2.79-1.52-4.23-3.82-4.23s-3.84,1.44-3.84,4.23v8.52H142.3V25.29h3.15V27A5.83,5.83,0,0,1,150,25c3.57,0,6.25,2.24,6.25,6.49v9h-3.12Z" transform="translate(0 -11.26)" fill="#f5f5f5"/><path d="M166,40.77c-4.37,0-7.6-3.1-7.6-7.88S161.46,25,166,25a7.1,7.1,0,0,1,7.41,7.49,10.1,10.1,0,0,1-.11,1.55H161.62a4.19,4.19,0,0,0,4.34,4,3.69,3.69,0,0,0,3.6-2.13H173A7,7,0,0,1,166,40.77Zm-4.31-9.24h8.43a4,4,0,0,0-4.26-3.84A4.15,4.15,0,0,0,161.65,31.53Z" transform="translate(0 -11.26)" fill="#f5f5f5"/><path d="M181.17,40.77c-3.65,0-6.22-2.16-6.36-4.92h3.26c.11,1.24,1.3,2.26,3,2.26s2.79-.77,2.79-1.82c0-3-8.84-1.27-8.84-6.86,0-2.43,2.27-4.39,5.86-4.39s5.72,1.85,5.89,4.89h-3.15c-.11-1.33-1.14-2.24-2.85-2.24s-2.57.69-2.57,1.72c0,3.06,8.59,1.35,8.76,6.85C187,38.83,184.76,40.77,181.17,40.77Z" transform="translate(0 -11.26)" fill="#f5f5f5"/><path d="M54.45,37.94h-.68c-.16,0-.33,0-.49,0A6.32,6.32,0,0,1,52,37.68l-.06,0c-.09,0-.18-.06-.27-.09a6,6,0,0,1-2.2-1.33,6.36,6.36,0,0,1-2.07-4.7v-.49c0-.06,0-.12,0-.18s0-.12,0-.18v-.47a6.39,6.39,0,0,1,1.75-4.39,6.09,6.09,0,0,1,2.47-1.62,6.53,6.53,0,0,1,2.18-.39h.61a6.33,6.33,0,0,1,5,2.49l2-2A9.51,9.51,0,0,0,54,21.06a9.6,9.6,0,0,0-9.81,9.81,9.93,9.93,0,0,0,17.24,6.6l-2-2A6.31,6.31,0,0,1,54.45,37.94Z" transform="translate(0 -11.26)" fill="#f5f5f5"/><path d="M24.15,17.78v4.54a20.25,20.25,0,0,1-.76,5.51,2.64,2.64,0,0,0,1.24,3L30,33.93a2.66,2.66,0,0,0,4-2.3V23.46a5.7,5.7,0,0,0-2.84-4.91l-9.84-5.68A5.68,5.68,0,0,1,24.15,17.78Z" transform="translate(0 -11.26)" fill="#f5f5f5"/><path d="M21.52,36.2a2.65,2.65,0,0,0-3.21.43A20.48,20.48,0,0,1,13.92,40L10,42.31a5.68,5.68,0,0,1-5.67,0L14.16,48a5.64,5.64,0,0,0,5.67,0L26.9,43.9a2.66,2.66,0,0,0,0-4.6Z" transform="translate(0 -11.26)" fill="#f5f5f5"/><path d="M11.32,35.37a20.42,20.42,0,0,0,7.49-13,2,2,0,0,1,3-1.46l2.34,1.32V17.78a5.68,5.68,0,0,0-2.84-4.91L19.83,12a5.64,5.64,0,0,0-5.67,0L2.84,18.55A5.68,5.68,0,0,0,0,23.46V36.54a5.68,5.68,0,0,0,2.84,4.91h0l1.48.86a5.68,5.68,0,0,0,5.67,0L13.92,40l-.05,0L11.55,38.7A2,2,0,0,1,11.32,35.37Zm-3.4-6.53a3.58,3.58,0,1,1,4-1.07A3.59,3.59,0,0,1,7.92,28.84Z" transform="translate(0 -11.26)" fill="url(#a)"/></svg>